{"title":"Arbitrage.2012.R5.XviD-PTpOWeR","uid":7876257,"size":741204092,"categoryP":"video","categoryS":"movies","magnet":"?xt=urn:btih:b8a53914aec7811180278e3f852a28abaf94dc9b&amp;dn=Arbitrage.2012.R5.XviD-PTpOWeR&amp;tr=udp%3A%2F%2Ftracker.openbittorrent.com%3A80&amp;tr=udp%3A%2F%2Fopen.demonii.com%3A1337&amp;tr=udp%3A%2F%2Ftracker.coppersurfer.tk%3A6969&amp;tr=udp%3A%2F%2Fexodus.desync.com%3A6969","seeders":0,"leechers":1,"uploader":"xxxlavalxxx","files":3,"time":1354351694,"description":" &lt;a href=&quot;http://www.shotpix.com/images/15139158334755126864.jpg&quot; rel=&quot;nofollow&quot; target=&quot;_NEW&quot;&gt;http://www.shotpix.com/images/15139158334755126864.jpg&lt;/a&gt;\n\n\n\nPlot:A troubled hedge fund magnate desperate to complete the sale of his trading empire makes an error that forces him to turn to an unlikely person for help.\n \n\n\nDirector: \nNicholas Jarecki\n\n Writer: \nNicholas Jarecki (screenplay)\n \nStars:\n Richard Gere, Susan Sarandon and Brit Marling\n\nGenres:\n Drama | Thriller \n\n\nCountry:\nUSA \n\nLanguage:\nEnglish \n\n\n\n\nFormat                                   : AVI\nFormat/Info                              : Audio Video Interleave\nFile size                                : 707 MiB\nDuration                                 : 1h 42mn\nOverall bit rate                         : 966 Kbps\n\nVideo\nID                                       : 0\nFormat                                   : MPEG-4 Visual\nFormat profile                           : Simple@L3\nFormat settings, BVOP                    : No\nFormat settings, QPel                    : No\nFormat settings, GMC                     : No warppoints\nFormat settings, Matrix                  : Default (H.263)\nCodec ID                                 : XVID\nCodec ID/Hint                            : XviD\nDuration                                 : 1h 42mn\nSource duration                          : 1h 42mn\nBit rate                                 : 825 Kbps\nWidth                                    : 624 pixels\nHeight                                   : 336 pixels\nDisplay aspect ratio                     : 1.85:1\nFrame rate                               : 25.000 fps\nColor space                              : YUV\nChroma subsampling                       : 4:2:0\nBit depth                                : 8 bits\nScan type                                : Progressive\nCompression mode                         : Lossy\nBits/(Pixel*Frame)                       : 0.157\nStream size                              : 604 MiB (85%)\nWriting library                          : XviD 1.1.2 (UTC 2006-11-01)\n\nAudio\nID                                       : 1\nFormat                                   : MPEG Audio\nFormat version                           : Version 1\nFormat profile                           : Layer 3\nMode                                     : Joint stereo\nMode extension                           : MS Stereo\nCodec ID                                 : 55\nCodec ID/Hint                            : MP3\nDuration                                 : 1h 42mn\nBit rate mode                            : Constant\nBit rate                                 : 128 Kbps\nChannel(s)                               : 2 channels\nSampling rate                            : 48.0 KHz\nCompression mode                         : Lossy\nStream size                              : 93.7 MiB (13%)\nAlignment                                : Split accross interleaves\nInterleave, duration                     : 24 ms (0.60 video frame)\n\n\n\n &lt;a href=&quot;\nhttp://www.shotpix.com/images/61089930535295166139.png&quot; rel=&quot;nofollow&quot; target=&quot;_NEW&quot;&gt;\nhttp://www.shotpix.com/images/61089930535295166139.png&lt;/a&gt; &lt;a href=&quot;\nhttp://www.shotpix.com/images/76696502334486335064.png&quot; rel=&quot;nofollow&quot; target=&quot;_NEW&quot;&gt;\nhttp://www.shotpix.com/images/76696502334486335064.png&lt;/a&gt; &lt;a href=&quot;\nhttp://www.shotpix.com/images/80350493298319932961.png&quot; rel=&quot;nofollow&quot; target=&quot;_NEW&quot;&gt;\nhttp://www.shotpix.com/images/80350493298319932961.png&lt;/a&gt; &lt;a href=&quot;\nhttp://www.shotpix.com/images/51852650904162110007.png&quot; rel=&quot;nofollow&quot; target=&quot;_NEW&quot;&gt;\nhttp://www.shotpix.com/images/51852650904162110007.png&lt;/a&gt;","torrent":{"xt":"urn:btih:b8a53914aec7811180278e3f852a28abaf94dc9b","amp;dn":"Arbitrage.2012.R5.XviD-PTpOWeR","amp;tr":["udp%3A%2F%2Ftracker.openbittorrent.com%3A80","udp%3A%2F%2Fopen.demonii.com%3A1337","udp%3A%2F%2Ftracker.coppersurfer.tk%3A6969","udp%3A%2F%2Fexodus.desync.com%3A6969"],"infoHash":"b8a53914aec7811180278e3f852a28abaf94dc9b","infoHashBuffer":{"type":"Buffer","data":[184,165,57,20,174,199,129,17,128,39,142,63,133,42,40,171,175,148,220,155]},"announce":[],"urlList":[]}}